<svg xmlns="http://www.w3.org/2000/svg" viewBox="0 0 229.74 423.72"><defs><style>.cls-1{fill:#d2451e;}.cls-1,.cls-2,.cls-3,.cls-5{stroke:#fff;stroke-miterlimit:2;}.cls-1,.cls-2,.cls-3{stroke-width:3px;}.cls-2,.cls-5{fill:#ff9015;}.cls-3{fill:none;}.cls-4{fill:#fff;}.cls-5{stroke-width:2.83px;}</style></defs><title>Asset 1</title><g id="Layer_2" data-name="Layer 2"><g id="Illustration"><polygon class="cls-1" points="199.25 307.04 213.19 358.62 186.19 336.62 176.69 286.62 181.19 271.62 194.69 288.62 199.25 307.04"/><polygon class="cls-1" points="34.16 313.75 63.99 313.1 87.33 315.05 92.52 271.6 81.5 245.01 34.16 313.75"/><polygon class="cls-2" points="151.56 155.66 178.21 168.11 193.55 203.61 190.92 177.75 205.82 192.65 211.96 192.22 212.83 176.88 225.1 202.73 228.17 220.26 219.41 235.6 200.13 235.6 193.11 231.22 199.25 307.04 151.56 155.66"/><polygon class="cls-2" points="132.86 316.79 148.68 402.23 155.66 422.22 193.52 422.22 191.19 385.92 190.61 331.76 186.86 302.79 165.56 308.47 128.88 308.47 132.86 316.79"/><polygon class="cls-2" points="79.37 304.39 82.19 343.46 91.53 422.12 150.86 421.8 158.19 345.46 161.49 317.78 100.46 306.14 79.37 304.39"/><polygon class="cls-2" points="85.81 235.84 79.18 295.54 93.05 307.45 150.8 314.86 189.74 306.6 180.9 209.3 177.21 182.77 166.16 165.81 151.56 155.66 123.06 150.34 116.77 184.24 85.81 235.84"/><polygon class="cls-2" points="73.19 52.12 97.55 20.71 104.68 8.7 107.98 1.5 119.51 1.5 130.19 3.7 135.43 6.44 142.02 11.93 136.53 20.17 142.02 28.4 138.17 33.34 120.61 37.73 112.37 40.48 100.69 55.62 89.31 67.38 65.16 67.93 73.19 52.12"/><polygon class="cls-2" points="74.69 57.12 87.69 60.62 100.69 55.62 81.69 102.12 90.19 126.12 111.69 132.35 130.19 165.12 127.69 198.62 95.19 254.12 49.19 309.62 23.19 341.12 9.69 327.12 1.69 310.62 54.69 216.12 67.19 172.12 46.69 147.62 38.19 120.12 38.19 103.62 45.69 96.62 68.19 47.62 79.19 43.12 73.19 52.12 74.69 57.12"/><polygon class="cls-2" points="145.79 184.58 149.29 160 151.13 150.8 156.65 151.72 160.79 146.66 160.79 135.61 163.55 123.65 164.93 117.67 159.87 108.47 158.03 101.11 151.59 91.91 139.16 87.76 119.84 90.53 108.34 111.23 111.1 130.09 119.84 144.81 123.06 150.34 131.8 157.7 139.57 160.75 145.79 184.58"/><polygon class="cls-2" points="195.94 187.58 187.71 163.97 182.76 159.03 179.47 149.14 191.55 132.12 197.04 133.22 203.08 141.46 206.37 144.75 210.76 157.93 204.73 169.46 212.96 183.73 216.81 204.05 203.63 202.95 195.94 187.58"/><polygon class="cls-2" points="164.64 136.51 170.13 127.73 192.1 106.31 198.69 91.49 212.41 93.69 225.04 111.81 226.14 122.24 219 128.28 209.12 125.53 197.04 133.22 182.21 143.1 172.33 145.85 164.64 136.51"/><polyline class="cls-2" points="209.12 125.53 199.33 117.46 196.62 106.63 198.69 91.49"/><polyline class="cls-3" points="197.59 108.19 207.72 104.44 212.94 110.27 211.74 116.27 207.14 123.48"/><polyline class="cls-3" points="111.1 130.09 110.37 139.17 116.86 157.04 120.66 197.11 101.67 242.61"/><polygon class="cls-2" points="151.56 155.66 165.08 162.96 179.89 167.73 168.22 173.35 179.03 179.83 185.4 247.43 199.25 307.04 187.9 280.09 177.15 234.1 166.99 198.53 160 173.12 151.56 155.66"/><polygon class="cls-2" points="78.19 292.13 76.19 303.12 98.86 313.12 132.86 317.79 172.98 317.56 189.69 305.62 189.69 298.8 169.53 309.47 130.19 308.13 100.86 303.47 78.19 292.13"/><polygon class="cls-4" points="122.54 306.45 122.2 316.55 126.99 317.56 126.74 306.45 122.54 306.45"/><polygon class="cls-4" points="95.49 300.28 92.11 309.56 96.05 313.14 99.46 301.65 95.49 300.28"/><polygon class="cls-4" points="171.31 308.85 172.98 317.56 177.03 314.58 174 305.48 171.31 308.85"/><polygon class="cls-4" points="160.82 129.69 162.26 124.17 157.35 122.74 151.62 126.22 149.17 130.1 150.19 135.62 155.71 139.51 158.99 139.71 159.8 136.24 160.15 132.71 160.82 129.69"/><polyline class="cls-3" points="67.19 172.12 87.53 163.12 93.53 143.79"/><line class="cls-2" x1="193.11" y1="231.22" x2="190.54" y2="215.86"/><polygon class="cls-2" points="108.76 121.99 109.64 109.92 114.64 93.44 127.59 86.09 152.6 90.8 152.31 94.62 136.42 93.15 128.77 95.21 137.3 102.27 132 106.1 129.65 118.45 119.06 114.04 115.82 117.28 119.06 124.93 117.88 134.34 113.17 139.05 111.7 125.81 108.76 121.99"/><polygon class="cls-4" points="141.74 110.14 147.96 106.82 154.18 108.06 152.93 111.38 145.05 112.21 141.74 110.14"/><ellipse class="cls-5" cx="173" cy="198.31" rx="8.3" ry="9.35" transform="matrix(0.98, -0.19, 0.19, 0.98, -34.62, 36.6)"/></g></g></svg>